<svg xmlns="http://www.w3.org/2000/svg" viewBox="0 0 128 128" role="img" aria-labelledby="title desc">
  <title id="title">Page &amp; Slide P&amp;S monogram</title>
  <desc id="desc">An original burgundy P and champagne S monogram shaped around a folded page corner and presentation baseline.</desc>
  <path d="M18 16h70l22 22v74H18Z" fill="#fbf8f1" stroke="#d8d0c2" stroke-width="2"/>
  <path d="M88 16v22h22" fill="none" stroke="#a98547" stroke-width="3"/>
  <path d="M31 34h27c16 0 26 8 26 21 0 14-10 23-26 23H47v27H31Zm16 14v17h10c7 0 11-4 11-10 0-5-4-7-11-7Z" fill="#7a3040"/>
  <path d="M112 42c-5-4-11-6-18-6-8 0-13 3-13 8 0 4 4 6 13 9 13 4 19 9 19 18 0 13-10 22-25 22-8 0-15-2-21-6l7-12c4 3 9 5 14 5 6 0 10-3 10-7 0-4-3-6-12-8-14-4-21-9-21-20 0-13 10-22 26-22 9 0 17 3 23 7Z" fill="#d7c39b"/>
  <path d="M36 102h57" stroke="#a98547" stroke-width="3"/>
</svg>
